<?xml version="1.0" encoding="utf-8"?>
<!-- Generator: Adobe Illustrator 22.0.1, SVG Export Plug-In . SVG Version: 6.00 Build 0)  -->
<svg version="1.1" id="Camada_1" xmlns="http://www.w3.org/2000/svg" xmlns:xlink="http://www.w3.org/1999/xlink" x="0px" y="0px"
	 viewBox="0 0 96 85" style="enable-background:new 0 0 96 85;" xml:space="preserve">
<style type="text/css">
	.st0{fill:#FFFFFF;}
</style>
<g>
	<path class="st0" d="M90.2,15.1c-3.1,0-56.8,0-64.5,0c0,0,0,0-1.4-6.4s-5.6-8.4-9.1-8.4s-7.8,0-14.3,0l3,6.3c0,0,2.6,0,8,0
		s7.1,3.1,7.8,6.1s5.1,24.1,6.3,29.5s3.8,16.9,5.3,18.6s5.3,4.3,9.1,4.3s41.8,0,41.8,0l4.6-5.1c0,0-37.5,0-43.5,0s-7.5-3-8.5-4.9
		s-3-7.9-3-12.8c3,0,43.5,0.2,52.5,0.2s9.3-4.2,9.8-7.5c0.5-3.3,1.1-6.9,1.1-12.5S93.3,15.1,90.2,15.1z M88.8,35.9H30.2l-2.1-13.4
		h61.6L88.8,35.9z"/>
	<circle class="st0" cx="45.8" cy="77.9" r="6.8"/>
	<circle class="st0" cx="75.4" cy="77.9" r="6.8"/>
</g>
</svg>
