<?xml version="1.0" encoding="utf-8"?>
<!-- Generator: Adobe Illustrator 22.0.1, SVG Export Plug-In . SVG Version: 6.00 Build 0)  -->
<svg version="1.1" id="Camada_1" xmlns="http://www.w3.org/2000/svg" xmlns:xlink="http://www.w3.org/1999/xlink" x="0px" y="0px"
	 viewBox="0 0 94.8 70.6" style="enable-background:new 0 0 94.8 70.6;" xml:space="preserve">
<style type="text/css">
	.st0{fill:none;stroke:#FFFFFF;stroke-width:2.5;stroke-miterlimit:10;}
	.st1{fill:none;stroke:#FFFFFF;stroke-width:2.5;stroke-linecap:round;stroke-linejoin:round;stroke-miterlimit:10;}
	.st2{fill:none;stroke:#FFFFFF;stroke-width:2.5;stroke-linecap:round;stroke-miterlimit:10;}
</style>
<g>
	<path class="st0" d="M16.9,62h-6.8c-4.9,0-8.8-3.9-8.8-8.8V10.1c0-4.9,3.9-8.8,8.8-8.8h74.6c4.9,0,8.8,3.9,8.8,8.8v43.1
		c0,4.9-3.9,8.8-8.8,8.8H38.5"/>
	<circle class="st0" cx="27.9" cy="57.7" r="11.7"/>
	<polyline class="st1" points="22.8,56.9 26.5,60.6 33.3,53.5 	"/>
	<circle class="st2" cx="58.6" cy="28.8" r="3.8"/>
	<circle class="st2" cx="71.4" cy="28.8" r="3.8"/>
	<circle class="st2" cx="84.1" cy="28.8" r="3.8"/>
	<line class="st2" x1="54.8" y1="17.6" x2="86.4" y2="17.6"/>
	<line class="st2" x1="54.8" y1="11" x2="78.5" y2="11"/>
	<line class="st2" x1="64.1" y1="39.6" x2="86.5" y2="39.6"/>
	<line class="st2" x1="53.8" y1="39.6" x2="58.1" y2="39.6"/>
	<line class="st2" x1="64.1" y1="46" x2="81.4" y2="46"/>
	<line class="st2" x1="53.8" y1="46" x2="58.1" y2="46"/>
	<line class="st2" x1="64.1" y1="52.4" x2="81.4" y2="52.4"/>
	<line class="st2" x1="53.8" y1="52.4" x2="58.1" y2="52.4"/>
	<path class="st2" d="M15.6,56h-3C9.5,56,7,53.5,7,50.4V13.6C7,10.5,9.5,8,12.6,8h31.1c3.1,0,5.6,2.5,5.6,5.6v36.8
		c0,3.1-2.5,5.6-5.6,5.6h-4.1"/>
	<path class="st1" d="M37,15.5c-4,0-9.9,0-12.1,0s-5.3,3.1-5.3,5.4s-0.1,4.9-0.1,4.9h1.4v6.5l2.4,1.4v3.9c0,0-7.4,2.6-9.2,5
		c0,2.4,0,6.1,0,6.1h6c0,0,4.2-2.6,7.9-2.6s6.5,2,8.3,3.6c2.4,0,6.5-0.1,6.5-0.1s0-5.1,0-6.8s-6-3.6-8.4-4.1c-2-0.8-1.3-1.5-1.3-1.5
		v-3.8l2.1-1.6v-4.4l1.5-1.5C36.8,25.9,37,21.4,37,15.5z"/>
</g>
</svg>
