<?xml version="1.0" encoding="utf-8"?>
<!-- Generator: Adobe Illustrator 22.0.1, SVG Export Plug-In . SVG Version: 6.00 Build 0)  -->
<svg version="1.1" id="Camada_1" xmlns="http://www.w3.org/2000/svg" xmlns:xlink="http://www.w3.org/1999/xlink" x="0px" y="0px"
	 viewBox="0 0 205 273.4" style="enable-background:new 0 0 205 273.4;" xml:space="preserve">
<style type="text/css">
	.st0{fill:#96D3CE;}
	.st1{fill:#034052;}
	.st2{fill:#227887;}
	.st3{fill:#24444F;}
	.st4{fill:#03414C;}
</style>
<g>
	<g>
		<path class="st0" d="M158.4,269.1c-1.9,0-3.8,0-5.5-0.1c-1.6,0-3.3-0.1-4.8-0.1l-1.6,0c-12.4,0-31.1,0.1-41.2-11.4
			c-8.9-10-10.1-25.5-10.1-40.6v-12H63c-12,0-20.6,6.7-25.5,20l-15.9-6c7.4-19.7,22.5-31,41.5-31h32v-20.5h17v20.5h51.5
			c25.6,0,41.5,13.8,41.5,36c0,18.9-4.6,28.9-17.6,38C178.4,268.2,167.8,269.1,158.4,269.1z M148,251.9c1.7,0,3.4,0,5.2,0.1
			c9,0.2,18.2,0.4,24.5-4c7.1-4.9,10.4-8.9,10.4-24c0-12.6-8.2-19-24.5-19H112v12c0,6.8,0,22.8,5.9,29.4c5.1,5.7,19.7,5.7,28.5,5.6
			L148,251.9z"/>
	</g>
	<g>
		<circle class="st1" cx="29" cy="244.4" r="29"/>
	</g>
	<g>
		<circle class="st2" cx="29" cy="244.4" r="16"/>
	</g>
	<g>
		<path class="st0" d="M115.5,176h-28c-19.3,0-39.4,0-58.6-17.1C8.9,141.1,8.9,120.8,9,110l0-1.5V61c0-20.2,20.7-42.3,43.5-46.4
			l3,16.7C39.9,34.2,26,50.3,26,61l0,49c0,9.9-0.1,23.4,14.2,36.1C53.6,158.1,67,159,87.5,159h28c20.5,0,33.9-0.9,47.4-12.9
			c14.3-12.7,14.2-26.2,14.2-36.1l0-1.5V61c0-10.7-13.9-26.8-29.5-29.6l3-16.7C173.3,18.7,194,40.8,194,61l0,49
			c0,10.9,0.1,31.1-19.9,48.9C154.9,176,134.8,176,115.5,176z"/>
	</g>
	<g>
		<path class="st3" d="M135.5,157.9h-66v17.6c4.5,1.2,14.6,1.2,25.5,1v28.9h17v-28.9c9.4,0.1,17.9-0.1,23.5-1V157.9z"/>
	</g>
	<g>
		<path class="st4" d="M60.5,44L60.5,44C54.7,44,50,39.3,50,33.5v-23C50,4.7,54.7,0,60.5,0h0C66.3,0,71,4.7,71,10.5v23
			C71,39.3,66.3,44,60.5,44z"/>
	</g>
	<g>
		<path class="st4" d="M142.5,44L142.5,44c-5.8,0-10.5-4.7-10.5-10.5v-23C132,4.7,136.7,0,142.5,0h0c5.8,0,10.5,4.7,10.5,10.5v23
			C153,39.3,148.3,44,142.5,44z"/>
	</g>
</g>
</svg>
