<?xml version="1.0" encoding="utf-8"?>
<!-- Generator: Adobe Illustrator 22.0.1, SVG Export Plug-In . SVG Version: 6.00 Build 0)  -->
<svg version="1.1" id="Layer_1" xmlns="http://www.w3.org/2000/svg" xmlns:xlink="http://www.w3.org/1999/xlink" x="0px" y="0px"
	 viewBox="0 0 416 399.1" style="enable-background:new 0 0 416 399.1;" xml:space="preserve">
<style type="text/css">
	.st0{fill-rule:evenodd;clip-rule:evenodd;fill:#3C3C3B;}
</style>
<g>
	<path class="st0" d="M382.7,88.9c4.7-1.6,7.4-4.8,7.4-9.9c0-10.5-8.3-15.7-21.6-16.4l-142.7-8.3L208.1,0.6V0L208,0.3l0-0.1v0.3
		l-17.7,53.7L47.5,62.4c-13.3,0.8-21.6,6-21.6,16.4c0,5.1,2.7,8.3,7.4,9.9L0,215.8c0.6,50.6,72.9,50.5,72.3,0L34.8,89.1
		c6.2,0.8,11.7-3.9,11.7-10.2c0-3.9-2.2-7.3-5.4-9.1c2.5-0.5,5.4-0.6,8.7-0.2L188.3,87l5.2,274.3l-60.8,4.9
		c-3.2,0.3-8.9,5.7-5.6,11.5L289,378c3.3-5.8-2.4-11.2-5.6-11.5l-60.8-4.9l5.2-274.3l138.5-17.4c3.4-0.4,6.3-0.3,8.7,0.2
		c-3.2,1.7-5.4,5.1-5.4,9.1c0,6.3,5.5,11,11.7,10.2L343.8,216c-0.6,50.5,71.6,50.6,72.3,0L382.7,88.9z M64.4,213.1H7.8l26.4-103.9
		L64.4,213.1z M351.6,213.3l30.2-103.9l26.4,103.9H351.6z"/>
	<path class="st0" d="M296.7,383.1h-88.6h-0.3h-88.6c-13.9,0-15,11.1-15,16h103.6h0.3h103.6C311.7,394.2,310.6,383.1,296.7,383.1z"
		/>
</g>
</svg>
