<?xml version="1.0" encoding="utf-8"?>
<!-- Generator: Adobe Illustrator 22.0.1, SVG Export Plug-In . SVG Version: 6.00 Build 0)  -->
<svg version="1.1" id="Layer_1" xmlns="http://www.w3.org/2000/svg" xmlns:xlink="http://www.w3.org/1999/xlink" x="0px" y="0px"
	 viewBox="0 0 514.6 342.2" style="enable-background:new 0 0 514.6 342.2;" xml:space="preserve">
<style type="text/css">
	.st0{fill-rule:evenodd;clip-rule:evenodd;fill:#3C3C3B;}
</style>
<g>
	<path class="st0" d="M447.2,295.2H29.5C13.3,295.2,0,308.4,0,324.7v17.6h476.7v-17.6C476.7,308.5,463.4,295.2,447.2,295.2z"/>
	<path class="st0" d="M302.4,120.2l2.8,0.8c2,0.6,4.3-1.1,5.1-3.8c0.8-2.7-0.1-5.4-2.1-6l-3.7-1.1c-0.7-9.5,1.3-18.3,6.3-26.3
		c8.2-0.2,16.5-7.7,19.9-18.6c3.4-11.3,0.3-22.5-7-26.8l0.1-0.4c1.1-3.5-0.2-6.9-2.7-7.7l-48.4-14.5l-48-15.7
		c-2.5-0.8-5.5,1.3-6.6,4.8L218,5.3c-8.5-0.6-17.4,6.9-21.1,18.1c-3.5,10.8-0.9,21.7,5.7,26.6c-0.4,9.4-3.8,17.8-9.8,25.2l-3.7-1.2
		c-2-0.6-4.3,1-5.1,3.7c-0.9,2.7,0,5.4,2,6l2.8,0.9c-1.5,21.7-7.8,42.2-19.7,61.3l-2.8-0.9c-2-0.7-4.3,1-5.2,3.7
		c-0.9,2.7,0.1,5.4,2,6.1l3.7,1.2c0.5,9.5-1.6,18.3-6.7,26.2c-8.2,0-16.6,7.3-20.1,18.1c-3.6,11.2-0.7,22.6,6.5,27.1l-0.1,0.4
		c-1.1,3.4,0,6.9,2.6,7.8l49.7,16.3l50,15c2.6,0.8,5.5-1.5,6.6-4.9l0.1-0.4c8.5,0.4,17.4-7.3,20.8-18.5c3.3-10.8,0.5-21.7-6.1-26.4
		c0.3-9.4,3.6-17.8,9.5-25.4l3.7,1.1c2,0.6,4.3-1.1,5.1-3.8c0.8-2.7-0.1-5.4-2.1-6l-2.9-0.9c0.2-4.4,0.7-8.7,1.3-12.9l221.1,70.8
		l8.8-28.1l-223.8-67.2C293.9,136.1,297.7,128,302.4,120.2z M200.6,148.5l-7.1-2.2l29.1-92.8l7.1,2.2L200.6,148.5z"/>
</g>
</svg>
