<?xml version="1.0" encoding="utf-8"?>
<!-- Generator: Adobe Illustrator 22.0.1, SVG Export Plug-In . SVG Version: 6.00 Build 0)  -->
<svg version="1.1" id="Camada_1" xmlns="http://www.w3.org/2000/svg" xmlns:xlink="http://www.w3.org/1999/xlink" x="0px" y="0px"
	 viewBox="0 0 283 280.2" style="enable-background:new 0 0 283 280.2;" xml:space="preserve">
<style type="text/css">
	.st0{fill:#FF0000;}
	.st1{fill:#F3BE9F;}
</style>
<g>
	<g>
		<path class="st0" d="M212,1.2c-33-6-51,11-72,39c-12-35-50-49-87-27s-21,65-6,83c3.3,4,8.6,9.8,15.1,16.7h36.7l17.1-29.7
			c0.6-1,1.7-1.6,2.8-1.5c1.2,0.1,2.2,0.8,2.6,1.9l17.3,46l17-59.8c0.4-1.3,1.5-2.2,2.9-2.2c0,0,0,0,0,0c1.3,0,2.5,0.9,2.9,2.2
			l12.4,42.8h44c8.7-8.9,16.5-16.8,22.2-22.5C264,66.2,245,7.2,212,1.2z"/>
		<path class="st0" d="M171.5,118.7c-1.3,0-2.5-0.9-2.9-2.2l-10.1-34.9L141.9,140c-0.4,1.2-1.5,2.1-2.8,2.2c0,0-0.1,0-0.1,0
			c-1.2,0-2.4-0.8-2.8-1.9l-18.3-48.6l-14.8,25.7c-0.5,0.9-1.5,1.5-2.6,1.5H67.8c23.2,24.3,56.8,57.9,72.2,73.3
			c11.7-11.7,45-46,71.9-73.5H171.5z"/>
	</g>
	<path class="st1" d="M1,122.2c0-14,7-22,14-22s16,5,16,23s0,46,0,46l9,9c0,0,10-9,11-10s7-6,17,4s47,46,47,46v62c-23-5-32-8-40-12
		c0-10,0-18,0-18l-75-70L1,122.2z"/>
	<path class="st1" d="M282,122.2c0-14-7-22-14-22s-16,5-16,23s0,46,0,46l-9,9c0,0-10-9-11-10s-7-6-17,4s-47,46-47,46v62
		c23-5,32-8,40-12c0-10,0-18,0-18l75-70L282,122.2z"/>
</g>
</svg>
