<?xml version="1.0" encoding="utf-8"?>
<!-- Generator: Adobe Illustrator 22.0.1, SVG Export Plug-In . SVG Version: 6.00 Build 0)  -->
<svg version="1.1" id="Layer_1" xmlns="http://www.w3.org/2000/svg" xmlns:xlink="http://www.w3.org/1999/xlink" x="0px" y="0px"
	 viewBox="0 0 726.3 599.9" style="enable-background:new 0 0 726.3 599.9;" xml:space="preserve">
<style type="text/css">
	.st0{fill-rule:evenodd;clip-rule:evenodd;fill:#3C3C3B;}
</style>
<g>
	<path class="st0" d="M720.1,110.7H6.3c-3.5,0-6.3,2.8-6.3,6.3v6.8c0,3.4,2.8,6.3,6.3,6.3h713.8c3.4,0,6.3-2.8,6.3-6.3V117
		C726.3,113.5,723.5,110.7,720.1,110.7z"/>
	<path class="st0" d="M363.2,0L42.2,98.4h641.9L363.2,0z"/>
	<path class="st0" d="M720.1,580.6h-68.5c-27.8-4.7-26.1-25.6-26.1-50.1V195.8c0-29.1,0.8-38.6,23.3-36.7c-0.2,1.1-0.3,2.3-0.3,3.4
		c0,13,10.5,23.5,23.5,23.5c13,0,23.5-10.5,23.5-23.5c0-13-10.5-23.5-23.5-23.5H52.8c-13,0-23.5,10.5-23.5,23.5
		c0,13,10.5,23.5,23.5,23.5c13,0,23.5-10.5,23.5-23.5c0-1.2-0.1-2.3-0.3-3.4c22.4-2,23.3,7.6,23.3,36.7v334.7
		c0,24.5,1.6,45.4-26.1,50.1H6.3c-3.4,0-6.3,2.8-6.3,6.3v6.8c0,3.4,2.8,6.3,6.3,6.3h713.8c3.4,0,6.3-2.8,6.3-6.3v-6.8
		C726.3,583.4,723.5,580.6,720.1,580.6z M121.1,580.6h-9.9V156.3h9.9V580.6z M140.4,580.6h-9.3V156.3h9.3V580.6z M159.8,580.6h-9.3
		V156.3h9.3V580.6z M178.8,580.6h-9.9V156.3h9.9V580.6z M198.1,580.6h-9.3V156.3h9.3V580.6z M279.5,580.6h-43.9
		c-27.4-4.7-26.1-24.8-26.1-49.1V194.9c0-31.3,4.6-38.4,26.7-37.1l0,0.1l0,0.1l0,0.1l0,0.1l0,0.1l0,0.1l0,0.1l0,0.1v0l0,0.1l0,0.1
		l0,0.1l0,0.1l0,0.1l0,0.1l0,0.1l0,0.1v0l0,0.1l0,0.1l0,0.1l0,0.1l0,0.1l0,0.1l0,0.1l0,0.1l0,0l0,0.1l0,0.1l0,0.1l0,0.1l0,0.1l0,0.1
		l0,0.1l0,0.1v0l0,0.1l0,0.1l0,0.1l0,0.1l0,0.1l0,0.1l0,0.1l0,0.1v0l0,0.1l0,0.1l0,0.1l0,0.1l0,0.1v0.1l0,0.1l0,0.1v0l0,0.1l0,0.1
		l0,0.1v0.1l0,0.1l0,0.1v0.1l0,0.1v0.1l0,0.1v0.1v0.1l0,0.1v0.1v0.1v0.1c0,13,10.5,23.5,23.5,23.5c13,0,23.5-10.5,23.5-23.5v-0.1
		v-0.1v0v-0.1v-0.1l0-0.1v-0.1v-0.1V162l0-0.1v-0.1v0v0l0-0.1v-0.1l0-0.1v-0.1l0-0.1v-0.1l0-0.1l0-0.1v-0.1v-0.1v0l0,0l0-0.1v-0.1
		l0-0.1l0-0.1l0-0.1l0-0.1l0-0.1l0-0.1l0-0.1v-0.1v0l0,0l0-0.1l0-0.1l0-0.1l0-0.1l0-0.1l0-0.1l0-0.1v-0.1l0-0.1l0-0.1v0l0,0l0-0.1
		l0-0.1l0-0.1l0-0.1l0-0.1l0-0.1l0-0.1l0-0.1l0-0.1l0-0.1l0,0v0l0-0.1l0-0.1l0-0.1l0-0.1l0-0.1l0-0.1l0-0.1l0-0.1
		c22.4-2,23.3,7.6,23.3,36.7v334.7C305.7,555,307.3,575.9,279.5,580.6z M327.5,580.6h-9.9V156.3h9.9V580.6z M346.8,580.6h-9.3V156.3
		h9.3V580.6z M366.2,580.6h-9.3V156.3h9.3V580.6z M385.2,580.6h-9.9V156.3h9.9V580.6z M404.5,580.6h-9.3V156.3h9.3V580.6z
		 M515.3,531.5c-0.1,24.3,1.3,44.4-26.1,49.1H442c-27.4-4.7-26.1-24.8-26.1-49.1V194.9c0-31.3,4.6-38.4,26.7-37.1l0,0.1l0,0.1l0,0.1
		l0,0.1l0,0.1l0,0.1l0,0.1l0,0.1v0l0,0.1l0,0.1l0,0.1l0,0.1l0,0.1l0,0.1l0,0.1l0,0.1v0l0,0.1l0,0.1l0,0.1l0,0.1l0,0.1l0,0.1l0,0.1
		l0,0.1l0,0l0,0.1l0,0.1l0,0.1l0,0.1l0,0.1l0,0.1l0,0.1l0,0.1v0l0,0.1l0,0.1l0,0.1l0,0.1l0,0.1l0,0.1l0,0.1l0,0.1v0l0,0.1v0.1l0,0.1
		l0,0.1l0,0.1l0,0.1l0,0.1l0,0.1v0l0,0.1l0,0.1l0,0.1v0.1v0.1l0,0.1v0.1l0,0.1v0.1l0,0.1v0.1v0.1l0,0.1v0.1v0.1v0.1
		c0,13,10.5,23.5,23.5,23.5c13,0,23.5-10.5,23.5-23.5v-0.1v-0.1v-0.1l0-0.1v-0.1v-0.1V162v-0.1l0-0.1v-0.1l0-0.1l0-0.1v-0.1l0-0.1
		l0-0.1l0-0.1v0l0-0.1l0-0.1l0-0.1l0-0.1l0-0.1l0-0.1l0-0.1l0-0.1v0l0-0.1l0-0.1l0-0.1v-0.1l0-0.1l0-0.1l0-0.1l0-0.1v0l0-0.1l0-0.1
		l0-0.1l0-0.1l0-0.1l0-0.1l0-0.1l0-0.1l0,0l0-0.1l0-0.1l0-0.1l0-0.1l0-0.1l0-0.1l0-0.1l0-0.1v0l0-0.1l0-0.1l0-0.1l0-0.1l0-0.1l0-0.1
		l0-0.1l0-0.1v0l0-0.1l0-0.1l0-0.1l0-0.1l0-0.1l0-0.1l0-0.1l0-0.1c22-1.3,26.7,5.8,26.7,37.1V531.5z M535.9,580.6h-9.3V156.3h9.3
		V580.6z M555.8,580.6h-9.9V156.3h9.9V580.6z M574.3,580.6H565V156.3h9.3V580.6z M593.6,580.6h-9.3V156.3h9.3V580.6z M613.5,580.6
		h-9.9V156.3h9.9V580.6z"/>
</g>
</svg>
