<?xml version="1.0" encoding="utf-8"?>
<!-- Generator: Adobe Illustrator 22.0.1, SVG Export Plug-In . SVG Version: 6.00 Build 0)  -->
<svg version="1.1" id="Camada_1" xmlns="http://www.w3.org/2000/svg" xmlns:xlink="http://www.w3.org/1999/xlink" x="0px" y="0px"
	 viewBox="0 0 242.1 197" style="enable-background:new 0 0 242.1 197;" xml:space="preserve">
<style type="text/css">
	.st0{fill:#98D5CD;}
	.st1{fill:#C0D6CA;}
	.st2{fill:#FFFFFF;}
	.st3{fill:#FF0000;}
	.st4{fill:#6C898F;}
	.st5{fill:#636361;}
</style>
<g>
	<path class="st0" d="M0.2,156.7c2.9,2.9,4.3,4.3,1.4,7.2s-2.9,17.2,8.6,17.2s219.2,0,219.2,0s17.2-1.4,11.5-15.8
		c-2.9-2.9-2.9-5.7,0-8.6c0-20.1,0-83.1,0-97.4s-11.5-40.1-43-40.1s-106,0-114.6,0s-20.1,8.6-28.7,17.2s-43,54.5-48.7,63
		s-5.7,11.5-5.7,20.1S0.2,156.7,0.2,156.7z"/>
	<path class="st1" d="M229.4,181H8.4c-10.6-3.9-9.7-11.3-5-20h235l2,4c0,0,2.8,5.8,0,10C236.4,181,229.4,181,229.4,181z"/>
	<path class="st2" d="M76.4,53c0,5,0,27,0,33s-2,12-10,12s-25,0-30,0s-13-5-5-15s25-31,29-36S76.4,39,76.4,53z"/>
	<polygon class="st2" points="187.4,69 170.4,69 170.4,52 153.4,52 153.4,69 136.4,69 136.4,86 153.4,86 153.4,103 170.4,103 
		170.4,86 187.4,86 	"/>
	<rect x="86.4" class="st3" width="21" height="19"/>
	<circle class="st4" cx="51.4" cy="174" r="23"/>
	<circle class="st5" cx="51.4" cy="174" r="13"/>
	<circle class="st4" cx="202.4" cy="174" r="23"/>
	<circle class="st5" cx="202.4" cy="174" r="13"/>
</g>
</svg>
