<?xml version="1.0" encoding="utf-8"?>
<!-- Generator: Adobe Illustrator 22.0.1, SVG Export Plug-In . SVG Version: 6.00 Build 0)  -->
<svg version="1.1" id="Camada_1" xmlns="http://www.w3.org/2000/svg" xmlns:xlink="http://www.w3.org/1999/xlink" x="0px" y="0px"
	 viewBox="0 0 262 72" style="enable-background:new 0 0 262 72;" xml:space="preserve">
<style type="text/css">
	.st0{fill:#FFFFFF;}
</style>
<g>
	<g id="Camada_x0020_1_22_">
		<path class="st0" d="M92.6,66.9C87.9,60,79.1,53,66.8,51.9c-12.9-1.1-25.7,2.2-38.5-0.3c-23-4.5-25.8-34.9-5.3-51.2
			C18.4,1.3,11.3,8.9,9.2,12c-12.4,18.2-13,43.7,6.3,55.3c21.6,13,40.1-7.5,59.1-8c3.8-0.1,7.3,0.8,10.3,2.3
			C88.6,63.3,90.1,65.3,92.6,66.9z"/>
		<path class="st0" d="M96.5,45.3l0-24.8L81,20.5v9.1l6.3,0.2V35c-3.2,0.1-7.8,0.4-10.4-0.5c-0.5-2.5-0.5-16.3,0-18.9
			c3-1.1,15.5-0.5,19.8-0.5V4.9c-6.2,0-18.3-0.7-23.8,0.2c-7.4,1.2-5.5,9.8-5.5,20c0,10.5-1.9,18.8,5.5,20.1
			C77,45.9,91.8,45.6,96.5,45.3z"/>
		<path class="st0" d="M22.7,35.1v10.3c6.4,0,12.7,0,19.1,0c7.5,0,10.1-1.3,10.1-9.7c0-15.9,0.2-15.3-14.3-15.2
			c-3.8,0-6.3,0.7-5.3-4.5c2.2-1.5,14.4-0.8,18.1-0.8l0-10.3c-4.7,0-19.8-0.6-23.3,0.4c-3.3,1-4.4,3.8-4.4,8
			c-0.1,2.8-0.3,10.6,0.5,12.7c2.8,7.2,17.6,1.3,19.1,4.8c2.4,5.3-4.9,4.2-7.5,4.2C30.8,35.1,26.7,35.1,22.7,35.1z"/>
		<path class="st0" d="M64.2,14.2c-1.1-1-8-7.9-8.8-9.1c0,0-0.1,0.2-0.1,0.2c-0.7,3.7-0.4,35.7-0.2,39.8l9,0.1L64.2,14.2z"/>
		<path class="st0" d="M63.5,5.7v6.9c-1.9-1.9-5-5-6.9-6.9H63.5 M55.9,5c-0.1,0-0.5,0-0.6,0.4c1.9,1.9,7.4,7.5,8.9,8.9V5L55.9,5
			C55.9,5,55.9,5,55.9,5L55.9,5z"/>
	</g>
	<g>
		<path class="st0" d="M115.3,4.2c1.2,0,2.4,0.3,3.5,0.8c0.5,0.2,0.9,0.4,1.1,0.4c0.1,0,0.4,0,0.7-0.1c0.1,0,0.2,0,0.4,0
			c0.4,0,0.8,0.2,1.1,0.6c0.8,1,1.2,2.1,1.2,3.6c0,1-0.3,1.7-1,2.2c-0.4,0.2-0.8,0.4-1.2,0.4c-0.4,0-0.8-0.1-1-0.3s-0.5-0.5-0.8-1
			c-0.4-0.7-0.6-1.1-0.9-1.4c-0.2-0.3-0.5-0.5-0.8-0.8c-0.8-0.6-1.6-0.8-2.5-0.8c-0.8,0-1.5,0.3-2,0.9s-0.7,1.4-0.7,2.5
			c0,1.4,0.4,2.7,1.1,3.9c1,1.6,2.4,2.4,4.2,2.4c0.7,0,1.3-0.1,2-0.3c0.7-0.2,1.2-0.5,1.5-0.9c0.3-0.3,0.6-0.4,0.8-0.4
			c0.3,0,0.5,0.1,0.7,0.4c0.2,0.3,0.3,0.6,0.3,1c0,0.5-0.1,1-0.4,1.6c-0.3,0.6-0.6,1.1-1,1.4c-0.2,0.1-0.5,0.3-1.1,0.4
			c-0.3,0.1-0.7,0.2-1.2,0.5c-1.2,0.6-2.5,0.9-3.8,0.9c-1.4,0-2.7-0.3-4.1-0.9c-1.6-0.7-2.8-1.8-3.8-3.3c-0.9-1.4-1.4-2.9-1.4-4.5
			c0-1.8,0.6-3.5,1.7-5c1-1.3,2.3-2.3,3.9-3C112.7,4.5,114,4.2,115.3,4.2z"/>
		<path class="st0" d="M135.4,15.9h-5.8c-0.3,0-0.4,0.1-0.4,0.3c0,0.5,0.3,1,0.9,1.5c0.6,0.5,1.2,0.7,1.9,0.7c0.4,0,0.8-0.1,1.3-0.2
			c0.5-0.2,0.9-0.3,1.2-0.6c0.3-0.2,0.5-0.3,0.7-0.3c0.2,0,0.4,0.1,0.6,0.4c0.2,0.3,0.3,0.5,0.3,0.8c0,0.6-0.4,1.2-1.1,1.7
			c-1.3,1-2.8,1.5-4.5,1.5c-1.7,0-3.2-0.5-4.3-1.5c-0.6-0.5-1-1.1-1.4-1.8c-0.5-0.9-0.7-1.9-0.7-2.9c0-1.4,0.4-2.6,1.3-3.7
			c0.7-1,1.6-1.7,2.8-2.1c0.8-0.4,1.7-0.5,2.7-0.5c1.6,0,2.9,0.4,4,1.3c0.6,0.4,1,1,1.3,1.6c0.4,0.7,0.6,1.4,0.6,2
			c0,0.5-0.1,1-0.3,1.3C136.1,15.7,135.8,15.9,135.4,15.9z M130,13.6h1.2c0.5,0,0.8-0.2,0.8-0.7c0-0.4-0.1-0.8-0.4-1.1
			c-0.3-0.3-0.6-0.4-1-0.4c-0.5,0-0.8,0.2-1.1,0.5c-0.2,0.3-0.4,0.7-0.4,1c0,0.2,0.1,0.4,0.2,0.5S129.7,13.6,130,13.6z"/>
		<path class="st0" d="M143.2,9.2c0.4,0,0.7,0.1,0.8,0.2c0.1,0.1,0.2,0.5,0.3,1.2c0,0.4,0.2,0.5,0.4,0.5c0.2,0,0.3-0.1,0.5-0.4
			c0.7-1,1.5-1.5,2.6-1.5c0.7,0,1.4,0.2,1.8,0.7c0.2,0.2,0.4,0.5,0.6,0.9c0.1,0.4,0.2,0.7,0.2,1.1c0,0.4-0.1,0.8-0.3,1.2
			c-0.2,0.4-0.4,0.7-0.7,1c-0.5,0.5-1.2,0.8-1.9,0.8c-0.4,0-0.8-0.1-1.1-0.2c-0.3-0.1-0.7-0.4-1.1-0.9c-0.2-0.2-0.3-0.3-0.5-0.3
			c-0.2,0-0.4,0.1-0.5,0.4c-0.1,0.3-0.1,0.8-0.1,1.6c0,1.2,0,2.1,0.1,2.5c0.1,0.2,0.1,0.4,0.2,0.5c0.1,0.1,0.3,0.2,0.7,0.3
			c0.7,0.2,1.1,0.6,1.1,1.2c0,0.3-0.1,0.6-0.4,0.9c-0.2,0.3-0.6,0.4-1,0.5c-0.8,0.2-2,0.2-3.5,0.2c-1.5,0-2.6-0.1-3.3-0.4
			c-0.7-0.2-1-0.6-1-1.2c0-0.4,0.2-0.8,0.7-1.1c0.2-0.2,0.4-0.3,0.5-0.4s0.2-0.3,0.2-0.5c0.1-0.7,0.2-2.1,0.2-4.2
			c0-0.4,0-0.6-0.1-0.8c-0.1-0.2-0.2-0.3-0.5-0.4c-0.6-0.2-0.9-0.6-0.9-1c0-0.4,0.2-0.7,0.6-1c0.4-0.3,1.1-0.6,2-0.8
			C141.2,9.4,142.3,9.2,143.2,9.2z"/>
		<path class="st0" d="M158.7,12.3v4.2c0,0.5,0.1,0.9,0.4,1.2c0.2,0.3,0.6,0.5,0.9,0.5c0.3,0,0.7-0.1,1.3-0.4
			c0.1-0.1,0.2-0.1,0.4-0.1c0.2,0,0.4,0.1,0.5,0.4c0.2,0.2,0.2,0.5,0.2,0.8c0,0.5-0.3,1-0.8,1.5c-1.2,1-2.6,1.5-4.3,1.5
			c-1.3,0-2.4-0.4-3.2-1.1c-0.8-0.7-1.2-1.7-1.2-2.9V12c0-0.2,0-0.3-0.1-0.4c0,0-0.2-0.1-0.4-0.1h-1.3c-0.2,0-0.4,0-0.5-0.1
			c-0.1-0.1-0.1-0.3-0.1-0.6v-0.5c0-0.2,0.1-0.4,0.3-0.5l5.7-3.6c0.1-0.1,0.3-0.1,0.5-0.1h1c0.2,0,0.3,0,0.4,0.1
			c0.1,0.1,0.1,0.3,0.1,0.6v1.7c0,0.2,0,0.4,0.1,0.5c0.1,0.1,0.2,0.1,0.5,0.1h2.3c0.3,0,0.5,0.1,0.6,0.2c0.1,0.1,0.1,0.3,0.1,0.7
			v0.7c0,0.4-0.1,0.7-0.2,0.8c-0.1,0.2-0.3,0.2-0.6,0.2h-2.2c-0.2,0-0.4,0-0.5,0.1C158.7,11.9,158.7,12.1,158.7,12.3z"/>
		<path class="st0" d="M169.9,9.9v7.2c0,0.6,0.1,1,0.2,1.2c0.1,0.3,0.3,0.5,0.6,0.7c0.3,0.2,0.4,0.3,0.5,0.5
			c0.1,0.1,0.1,0.3,0.1,0.5c0,1.1-1.3,1.6-4,1.6c-1.5,0-2.6-0.1-3.4-0.3c-0.3-0.1-0.5-0.2-0.7-0.4c-0.2-0.2-0.3-0.4-0.3-0.7
			c0-0.2,0-0.4,0.1-0.5c0.1-0.1,0.3-0.3,0.7-0.6c0.3-0.2,0.4-0.5,0.5-0.9c0.1-0.4,0.2-1.1,0.2-1.9c0-0.3,0-0.8-0.1-1.5
			c0-0.7-0.1-1.2-0.1-1.3c0-0.3-0.3-0.6-0.7-0.8c-0.5-0.2-0.8-0.6-0.8-1c0-0.5,0.3-0.9,1-1.2c0.9-0.4,1.9-0.7,3-0.9
			c1.1-0.2,1.9-0.4,2.4-0.4C169.7,9.2,169.9,9.4,169.9,9.9z M167.5,4.5c0.7,0,1.3,0.1,1.7,0.4c0.4,0.3,0.6,0.6,0.6,1.1
			c0,0.6-0.3,1.1-1,1.5c-1,0.6-2.2,0.9-3.6,0.9c-0.6,0-1.1-0.1-1.4-0.3c-0.5-0.3-0.7-0.7-0.7-1.2c0-0.7,0.5-1.3,1.5-1.7
			C165.6,4.7,166.6,4.5,167.5,4.5z"/>
		<path class="st0" d="M179.3,11.4h1.5c0.3,0,0.4,0,0.5,0.1c0.1,0.1,0.2,0.2,0.1,0.4l-0.1,1.5c0,0.3-0.1,0.5-0.1,0.6
			c-0.1,0.1-0.2,0.1-0.5,0.1c-0.1,0-0.2,0-0.4,0c-0.1,0-0.3,0-0.4,0c-0.3,0-0.6,0.1-0.7,0.3c-0.1,0.2-0.2,0.7-0.2,1.3
			c0,0.9,0.1,1.6,0.3,2.2c0.1,0.3,0.2,0.4,0.3,0.6c0.1,0.1,0.4,0.2,0.7,0.3c0.7,0.2,1.1,0.6,1.1,1.2c0,0.6-0.4,1.1-1.3,1.3
			c-0.8,0.3-2.2,0.4-4.2,0.4c-2.9,0-4.3-0.6-4.3-1.7c0-0.3,0.1-0.5,0.2-0.6c0.1-0.1,0.4-0.3,0.8-0.5c0.4-0.2,0.7-0.6,0.8-1.1
			c0.1-0.8,0.2-1.7,0.2-2.6c0-0.4-0.1-0.7-0.2-0.9c-0.1-0.2-0.4-0.2-0.8-0.2c-0.4,0-0.7,0-0.9-0.1s-0.2-0.2-0.2-0.3l0.1-1.6
			c0-0.3,0.1-0.4,0.1-0.5c0.1-0.1,0.3-0.1,0.6-0.1c0.3,0,0.5-0.2,0.5-0.4c0-0.1-0.1-0.4-0.3-0.8c-0.4-0.7-0.6-1.4-0.6-2.1
			c0-1,0.3-1.8,1-2.5c1-0.9,2.5-1.4,4.4-1.4c1.6,0,2.8,0.4,3.7,1.1c0.7,0.6,1.1,1.2,1.1,2c0,0.5-0.2,1-0.5,1.4
			c-0.4,0.4-0.8,0.5-1.3,0.5c-0.6,0-1.2-0.2-1.7-0.6c-0.1-0.1-0.4-0.4-0.9-1c-0.4-0.4-0.7-0.6-1.1-0.6c-0.2,0-0.4,0.1-0.6,0.2
			C176,7.6,176,7.8,176,8.1c0,0.7,0.6,1.3,1.9,2.1c0.4,0.2,0.6,0.4,0.8,0.5c0.1,0.1,0.3,0.3,0.4,0.6C179,11.3,179.1,11.4,179.3,11.4
			z"/>
		<path class="st0" d="M189.8,9.9v7.2c0,0.6,0.1,1,0.2,1.2c0.1,0.3,0.3,0.5,0.6,0.7c0.3,0.2,0.4,0.3,0.5,0.5
			c0.1,0.1,0.1,0.3,0.1,0.5c0,1.1-1.3,1.6-4,1.6c-1.5,0-2.6-0.1-3.4-0.3c-0.3-0.1-0.5-0.2-0.7-0.4c-0.2-0.2-0.3-0.4-0.3-0.7
			c0-0.2,0-0.4,0.1-0.5c0.1-0.1,0.3-0.3,0.7-0.6c0.3-0.2,0.4-0.5,0.5-0.9c0.1-0.4,0.2-1.1,0.2-1.9c0-0.3,0-0.8-0.1-1.5
			c0-0.7-0.1-1.2-0.1-1.3c0-0.3-0.3-0.6-0.7-0.8c-0.5-0.2-0.8-0.6-0.8-1c0-0.5,0.3-0.9,1-1.2c0.9-0.4,1.9-0.7,3-0.9
			c1.1-0.2,1.9-0.4,2.4-0.4C189.6,9.2,189.8,9.4,189.8,9.9z M187.4,4.5c0.7,0,1.3,0.1,1.7,0.4c0.4,0.3,0.6,0.6,0.6,1.1
			c0,0.6-0.3,1.1-1,1.5c-1,0.6-2.2,0.9-3.6,0.9c-0.6,0-1.1-0.1-1.4-0.3c-0.5-0.3-0.7-0.7-0.7-1.2c0-0.7,0.5-1.3,1.5-1.7
			C185.5,4.7,186.5,4.5,187.4,4.5z"/>
		<path class="st0" d="M199,9.1c1.5,0,2.8,0.4,3.9,1.1c1.1,0.7,1.6,1.6,1.6,2.6c0,0.7-0.2,1.3-0.7,1.7c-0.5,0.4-1,0.6-1.7,0.6
			c-0.7,0-1.2-0.2-1.5-0.7c-0.1-0.2-0.3-0.6-0.5-1.2c-0.2-0.7-0.6-1-1.3-1c-0.5,0-0.8,0.2-1.1,0.6c-0.3,0.4-0.5,0.9-0.5,1.5
			c0,1,0.4,1.9,1.1,2.6c0.6,0.6,1.3,0.9,2.2,0.9c0.4,0,0.8,0,1-0.1c0.3-0.1,0.6-0.2,1.1-0.4c0.1-0.1,0.2-0.1,0.4-0.1
			c0.3,0,0.5,0.1,0.7,0.4c0.2,0.3,0.3,0.6,0.3,0.9c0,0.4-0.2,0.8-0.5,1.2c-0.3,0.4-0.7,0.8-1.2,1.1c-1.1,0.7-2.3,1-3.8,1
			c-1.7,0-3.1-0.5-4.3-1.5c-1.5-1.3-2.3-2.8-2.3-4.8c0-1.9,0.7-3.4,2.1-4.6C195.4,9.7,197.1,9.1,199,9.1z"/>
		<path class="st0" d="M212.4,9.1c1.4,0,2.6,0.4,3.6,1.1c0.5,0.4,0.9,0.8,1.1,1.3c0.2,0.5,0.3,1.2,0.3,2.1l0,1.8
			c0,1.3,0.1,2.1,0.3,2.5c0.1,0.2,0.2,0.3,0.3,0.3c0.1,0,0.3,0.1,0.5,0.1c0.3,0,0.4,0.2,0.4,0.5c0,0.4-0.2,0.8-0.5,1.2
			c-0.3,0.4-0.7,0.8-1.2,1.1c-0.6,0.4-1.3,0.5-1.9,0.5c-0.9,0-1.5-0.3-2.1-0.9c-0.2-0.2-0.3-0.3-0.5-0.3c-0.2,0-0.4,0.1-0.7,0.3
			c-0.8,0.6-1.8,0.9-2.8,0.9c-1.1,0-2-0.2-2.6-0.7c-0.4-0.3-0.8-0.7-1-1.2c-0.3-0.5-0.4-1-0.4-1.5c0-0.9,0.3-1.6,1-2.3
			c1.1-1,2.7-1.6,4.8-1.6c0.5,0,0.8,0,0.9-0.1c0.1-0.1,0.2-0.3,0.2-0.7c0-0.9-0.1-1.5-0.3-1.9s-0.5-0.6-0.9-0.6
			c-0.2,0-0.5,0.1-0.7,0.2s-0.4,0.4-0.7,0.8c-0.7,1-1.5,1.6-2.3,1.6c-0.4,0-0.7-0.1-1-0.4c-0.3-0.2-0.4-0.6-0.4-0.9
			c0-0.4,0.2-0.8,0.5-1.2c0.3-0.4,0.7-0.7,1.3-1C209.2,9.5,210.7,9.1,212.4,9.1z M211.5,16.2c-0.4,0-0.7,0.1-0.9,0.4
			c-0.3,0.3-0.4,0.7-0.4,1.1c0,0.4,0.1,0.7,0.3,1c0.2,0.2,0.4,0.4,0.8,0.4c0.7,0,1-0.6,1-1.7c0-0.5,0-0.8-0.1-0.9
			C212,16.3,211.8,16.2,211.5,16.2z"/>
		<path class="st0" d="M225.6,22.8l-0.7-0.9c-0.1-0.2-0.4-0.3-0.6-0.4c-0.3-0.1-0.6-0.2-1-0.3c-0.9-0.4-1.7-1-2.4-1.8
			c-0.9-1.1-1.4-2.4-1.4-3.9c0-1.9,0.7-3.4,2.1-4.6c1.4-1.2,3-1.8,5-1.8c1.5,0,2.8,0.4,3.9,1.1c1,0.7,1.5,1.6,1.5,2.6
			c0,0.7-0.2,1.3-0.7,1.7c-0.5,0.4-1,0.6-1.7,0.6c-0.5,0-0.9-0.1-1.2-0.4c-0.3-0.3-0.5-0.7-0.8-1.4c-0.2-0.8-0.7-1.1-1.3-1.1
			c-0.5,0-0.9,0.2-1.2,0.6c-0.3,0.4-0.5,0.9-0.5,1.5c0,1,0.4,1.8,1.1,2.6c0.6,0.6,1.3,0.9,2.2,0.9c0.4,0,0.7,0,1-0.1
			c0.2-0.1,0.6-0.2,1.1-0.4c0.1-0.1,0.2-0.1,0.4-0.1c0.3,0,0.6,0.1,0.8,0.4c0.2,0.3,0.3,0.6,0.3,0.9c0,0.8-0.6,1.6-1.7,2.3
			c-0.8,0.5-1.8,0.9-2.8,1c-0.1,0-0.2,0.1-0.2,0.1c0,0,0,0.1,0.1,0.2l1.1,1c0.5,0.5,0.8,0.9,0.8,1.2c0,0.4-0.2,0.8-0.7,1.1
			c-0.5,0.3-1.1,0.4-1.8,0.4c-0.7,0-1.3-0.2-1.7-0.5c-0.3-0.2-0.5-0.5-0.5-0.8c0-0.2,0.1-0.4,0.3-0.6c0.2-0.2,0.5-0.3,0.9-0.3
			c0.2,0,0.3-0.1,0.3-0.3C225.9,23.2,225.8,23,225.6,22.8z"/>
		<path class="st0" d="M240,9.1c1.4,0,2.6,0.4,3.6,1.1c0.5,0.4,0.9,0.8,1.1,1.3c0.2,0.5,0.3,1.2,0.3,2.1l0,1.8
			c0,1.3,0.1,2.1,0.3,2.5c0.1,0.2,0.2,0.3,0.3,0.3c0.1,0,0.3,0.1,0.5,0.1c0.3,0,0.4,0.2,0.4,0.5c0,0.4-0.2,0.8-0.5,1.2
			c-0.3,0.4-0.7,0.8-1.2,1.1c-0.6,0.4-1.3,0.5-1.9,0.5c-0.9,0-1.5-0.3-2.1-0.9c-0.2-0.2-0.3-0.3-0.5-0.3c-0.2,0-0.4,0.1-0.7,0.3
			c-0.8,0.6-1.8,0.9-2.8,0.9c-1.1,0-2-0.2-2.6-0.7c-0.4-0.3-0.8-0.7-1-1.2c-0.3-0.5-0.4-1-0.4-1.5c0-0.9,0.3-1.6,1-2.3
			c1.1-1,2.7-1.6,4.8-1.6c0.5,0,0.8,0,0.9-0.1c0.1-0.1,0.2-0.3,0.2-0.7c0-0.9-0.1-1.5-0.3-1.9s-0.5-0.6-0.9-0.6
			c-0.2,0-0.5,0.1-0.7,0.2s-0.4,0.4-0.7,0.8c-0.7,1-1.5,1.6-2.3,1.6c-0.4,0-0.7-0.1-1-0.4c-0.3-0.2-0.4-0.6-0.4-0.9
			c0-0.4,0.2-0.8,0.5-1.2c0.3-0.4,0.7-0.7,1.3-1C236.8,9.5,238.4,9.1,240,9.1z M237.4,6.5v0.3c0,0.3-0.1,0.5-0.3,0.7
			c-0.2,0.2-0.5,0.3-0.9,0.3c-0.4,0-0.7-0.1-1-0.4c-0.3-0.3-0.4-0.6-0.4-1.1c0-0.5,0.1-0.9,0.3-1.4c0.2-0.3,0.5-0.6,0.8-0.8
			c0.4-0.2,0.8-0.3,1.2-0.3c0.4,0,0.8,0.1,1.2,0.2c0.4,0.1,1,0.4,2,0.9c0.5,0.2,0.8,0.3,1.1,0.3c0.2,0,0.3-0.2,0.4-0.5
			c0-0.3,0.1-0.5,0.1-0.5c0-0.1,0.1-0.1,0.2-0.2c0.2-0.2,0.5-0.3,0.9-0.3c1.1,0,1.6,0.5,1.6,1.6c0,0.7-0.2,1.3-0.6,1.7
			c-0.4,0.4-1,0.6-1.6,0.6c-0.4,0-0.7,0-1-0.1c-0.3-0.1-0.7-0.2-1.2-0.5c-0.4-0.2-0.8-0.3-1.2-0.5c-0.5-0.2-0.8-0.3-0.8-0.4
			c-0.2-0.1-0.3-0.1-0.4-0.1C237.5,6.2,237.4,6.3,237.4,6.5z M239.2,16.2c-0.4,0-0.7,0.1-0.9,0.4c-0.3,0.3-0.4,0.7-0.4,1.1
			c0,0.4,0.1,0.7,0.3,1c0.2,0.2,0.4,0.4,0.8,0.4c0.7,0,1-0.6,1-1.7c0-0.5,0-0.8-0.1-0.9C239.6,16.3,239.5,16.2,239.2,16.2z"/>
		<path class="st0" d="M255,9.1c1.5,0,2.8,0.4,4,1.2c0.8,0.6,1.5,1.3,2,2.2c0.5,0.9,0.8,1.9,0.8,2.9c0,1.8-0.8,3.3-2.5,4.6
			c-1.6,1.2-3.4,1.8-5.4,1.8c-2,0-3.6-0.6-4.8-1.7c-1.2-1.1-1.8-2.5-1.8-4.2c0-1.9,0.7-3.5,2.2-4.8C250.9,9.7,252.8,9.1,255,9.1z
			 M254,11.9c-0.4,0-0.7,0.1-0.9,0.4c-0.2,0.3-0.3,0.6-0.3,1.1c0,0.5,0.1,1.2,0.3,2c0.2,0.9,0.4,1.6,0.7,2.3c0.3,0.7,0.7,1,1.2,1
			c0.7,0,1.1-0.5,1.1-1.4c0-0.7-0.1-1.5-0.3-2.4c-0.2-0.9-0.4-1.6-0.7-2.2C254.8,12.2,254.5,12,254,11.9z"/>
		<path class="st0" d="M111,45.5h-0.9c-0.5,0-1.1,0-1.7,0.1c-0.4,0-0.7,0-0.8,0c-0.6,0-1-0.1-1.3-0.4c-0.3-0.3-0.5-0.6-0.5-1
			c0-0.3,0.1-0.5,0.2-0.7c0.2-0.2,0.4-0.3,0.7-0.4c0.3-0.1,0.6-0.2,0.7-0.4c0.1-0.2,0.2-0.5,0.3-1.1c0.1-0.6,0.1-1.8,0.2-3.6
			c0.1-1.8,0.1-3.6,0.1-5.3c0-0.7-0.1-1.2-0.2-1.4c-0.1-0.2-0.4-0.4-0.8-0.6c-0.6-0.2-0.9-0.6-0.9-1.1c0-0.4,0.2-0.7,0.6-0.9
			c0.4-0.2,0.9-0.3,1.6-0.3c0.2,0,0.5,0,0.8,0c0.7,0,1.2,0,1.5,0c1.2,0,2.5,0,4-0.1c0.3,0,0.7,0,1.2,0c1.9,0,3.4,0.2,4.5,0.6
			c1.6,0.6,2.9,1.7,3.7,3.2c0.7,1.3,1.1,2.9,1.1,4.8c0,0.9-0.1,1.9-0.4,2.8c-0.3,0.9-0.6,1.7-1.1,2.4c-1,1.4-2.3,2.4-4,2.9
			c-1,0.3-2,0.5-3.2,0.5l-1.5,0l-1.3,0C112.7,45.5,111.8,45.5,111,45.5z M113.6,32.1v9.6c0,0.5,0.1,0.9,0.3,1.1
			c0.2,0.2,0.6,0.3,1.1,0.3c2.4,0,3.6-1.8,3.6-5.5c0-2-0.3-3.6-0.8-4.7c-0.6-1.2-1.7-1.8-3.1-1.8c-0.4,0-0.7,0.1-0.8,0.2
			C113.7,31.5,113.6,31.7,113.6,32.1z"/>
		<path class="st0" d="M133,34.1v7.2c0,0.6,0.1,1,0.2,1.2c0.1,0.3,0.3,0.5,0.6,0.7c0.3,0.2,0.4,0.3,0.5,0.5c0.1,0.1,0.1,0.3,0.1,0.5
			c0,1.1-1.3,1.6-4,1.6c-1.4,0-2.6-0.1-3.4-0.3c-0.3-0.1-0.5-0.2-0.7-0.4c-0.2-0.2-0.3-0.4-0.3-0.7c0-0.2,0-0.4,0.1-0.5
			c0.1-0.1,0.3-0.3,0.7-0.6c0.3-0.2,0.4-0.5,0.5-0.9c0.1-0.4,0.2-1.1,0.2-1.9c0-0.3,0-0.8-0.1-1.5c0-0.7-0.1-1.2-0.1-1.3
			c0-0.3-0.3-0.6-0.7-0.8c-0.5-0.2-0.8-0.6-0.8-1c0-0.5,0.3-0.9,1-1.2c0.9-0.4,1.9-0.7,3-0.9c1.1-0.2,1.9-0.4,2.4-0.4
			C132.8,33.3,133,33.5,133,34.1z M130.5,28.6c0.7,0,1.3,0.1,1.7,0.4c0.4,0.3,0.6,0.6,0.6,1.1c0,0.6-0.3,1.1-1,1.5
			c-1,0.6-2.2,0.9-3.6,0.9c-0.6,0-1.1-0.1-1.4-0.3c-0.5-0.3-0.7-0.7-0.7-1.2c0-0.7,0.5-1.3,1.5-1.7
			C128.7,28.9,129.6,28.6,130.5,28.6z"/>
		<path class="st0" d="M148.3,32.5c0.2,0,0.4,0.1,0.5,0.4c0.2,0.2,0.2,0.5,0.2,0.8c0,0.3-0.1,0.7-0.3,1.1c-0.2,0.4-0.5,0.8-0.8,1
			c-0.2,0.2-0.3,0.3-0.3,0.4c0,0,0,0.1,0,0.3c0,0.2,0,0.3,0,0.5c0,1-0.3,1.8-1,2.5c-0.6,0.6-1.4,1.1-2.3,1.4c-0.9,0.3-2,0.5-3.1,0.5
			c-0.3,0-0.5,0-0.8,0c-0.2,0-0.4,0-0.5,0c-0.4,0-0.7,0.2-0.7,0.7c0,0.3,0.1,0.5,0.4,0.7c0.3,0.2,0.7,0.2,1.2,0.2
			c0.3,0,0.8,0,1.5-0.1c1.4-0.2,2.3-0.3,3-0.3c1,0,1.7,0.2,2.3,0.5c0.4,0.2,0.8,0.6,1,1c0.3,0.4,0.4,0.9,0.4,1.4
			c0,0.8-0.3,1.6-0.9,2.4c-0.7,0.9-1.8,1.6-3.2,2.1c-1.1,0.3-2.4,0.5-3.8,0.5c-1.8,0-3.3-0.3-4.4-0.8c-0.5-0.3-0.9-0.6-1.3-1
			c-0.3-0.4-0.5-0.9-0.5-1.3c0-0.3,0.1-0.6,0.3-0.9c0.2-0.3,0.4-0.5,0.7-0.6c0.2-0.1,0.4-0.2,0.4-0.3c0-0.1-0.1-0.2-0.3-0.4
			c-0.7-0.6-1-1.1-1-1.7c0-0.4,0.2-0.8,0.5-1.2c0.3-0.4,0.7-0.7,1.2-1c0.2-0.1,0.3-0.2,0.3-0.3c0-0.1-0.1-0.3-0.4-0.5
			c-0.8-0.8-1.3-1.7-1.3-2.7c0-0.6,0.2-1.1,0.5-1.6c0.3-0.5,0.7-0.9,1.3-1.3c1.3-0.9,2.8-1.3,4.4-1.3c0.6,0,1.4,0.1,2.1,0.2
			c0.7,0.1,1.3,0.2,1.5,0.2c0.9,0,1.8-0.4,2.7-1.1C148,32.6,148.2,32.5,148.3,32.5z M138.9,46.3c-0.2,0-0.3,0.1-0.3,0.4
			c0,0.5,0.3,0.9,0.8,1.2c0.5,0.3,1.2,0.5,2.1,0.5c0.8,0,1.4-0.1,1.9-0.3c0.5-0.2,0.7-0.5,0.7-0.9c0-0.2-0.1-0.4-0.3-0.5
			c-0.2-0.1-0.4-0.2-0.6-0.2c-0.1,0-0.3,0-0.6,0c-0.5,0.1-1,0.1-1.5,0.1c-0.4,0-0.8,0-1.2-0.1c-0.3,0-0.5-0.1-0.7-0.1
			C139,46.3,138.9,46.3,138.9,46.3z M141.6,35.1c-0.4,0-0.7,0.2-1,0.5c-0.3,0.3-0.4,0.7-0.4,1.2c0,0.9,0.1,1.6,0.4,2.1
			c0.3,0.5,0.6,0.8,1.1,0.8c0.4,0,0.8-0.2,1-0.5c0.3-0.3,0.4-0.8,0.4-1.3c0-0.9-0.1-1.6-0.4-2.1C142.4,35.4,142,35.1,141.6,35.1z"/>
		<path class="st0" d="M156.6,34.1v7.2c0,0.6,0.1,1,0.2,1.2c0.1,0.3,0.3,0.5,0.6,0.7c0.3,0.2,0.4,0.3,0.5,0.5
			c0.1,0.1,0.1,0.3,0.1,0.5c0,1.1-1.3,1.6-4,1.6c-1.4,0-2.6-0.1-3.4-0.3c-0.3-0.1-0.5-0.2-0.7-0.4c-0.2-0.2-0.3-0.4-0.3-0.7
			c0-0.2,0-0.4,0.1-0.5c0.1-0.1,0.3-0.3,0.7-0.6c0.3-0.2,0.4-0.5,0.5-0.9c0.1-0.4,0.2-1.1,0.2-1.9c0-0.3,0-0.8-0.1-1.5
			c0-0.7-0.1-1.2-0.1-1.3c0-0.3-0.3-0.6-0.7-0.8c-0.5-0.2-0.8-0.6-0.8-1c0-0.5,0.3-0.9,1-1.2c0.9-0.4,1.9-0.7,3-0.9
			c1.1-0.2,1.9-0.4,2.4-0.4C156.4,33.3,156.6,33.5,156.6,34.1z M154.2,28.6c0.7,0,1.3,0.1,1.7,0.4c0.4,0.3,0.6,0.6,0.6,1.1
			c0,0.6-0.3,1.1-1,1.5c-1,0.6-2.2,0.9-3.6,0.9c-0.6,0-1.1-0.1-1.4-0.3c-0.5-0.3-0.7-0.7-0.7-1.2c0-0.7,0.5-1.3,1.5-1.7
			C152.3,28.9,153.3,28.6,154.2,28.6z"/>
		<path class="st0" d="M166.1,36.4v4.2c0,0.5,0.1,0.9,0.4,1.2c0.2,0.3,0.6,0.5,0.9,0.5c0.3,0,0.7-0.1,1.3-0.4
			c0.1-0.1,0.2-0.1,0.4-0.1c0.2,0,0.4,0.1,0.5,0.4c0.2,0.2,0.2,0.5,0.2,0.8c0,0.5-0.3,1-0.8,1.5c-1.2,1-2.6,1.5-4.3,1.5
			c-1.3,0-2.4-0.4-3.2-1.1c-0.8-0.7-1.2-1.7-1.2-2.9v-5.7c0-0.2,0-0.3-0.1-0.4c0,0-0.2-0.1-0.4-0.1h-1.3c-0.2,0-0.4,0-0.5-0.1
			c-0.1-0.1-0.1-0.3-0.1-0.6v-0.5c0-0.2,0.1-0.4,0.3-0.5l5.7-3.6c0.1-0.1,0.3-0.1,0.5-0.1h1c0.2,0,0.3,0,0.4,0.1
			c0.1,0.1,0.1,0.3,0.1,0.6v1.7c0,0.2,0,0.4,0.1,0.5c0.1,0.1,0.2,0.1,0.5,0.1h2.3c0.3,0,0.5,0.1,0.6,0.2c0.1,0.1,0.1,0.3,0.1,0.7
			v0.7c0,0.4-0.1,0.7-0.2,0.8c-0.1,0.2-0.3,0.2-0.6,0.2h-2.2c-0.2,0-0.4,0-0.5,0.1C166.2,36.1,166.1,36.2,166.1,36.4z"/>
		<path class="st0" d="M177.7,33.2c1.4,0,2.6,0.4,3.6,1.1c0.5,0.4,0.9,0.8,1.1,1.3s0.3,1.2,0.3,2.1l0,1.8c0,1.3,0.1,2.1,0.3,2.5
			c0.1,0.2,0.2,0.3,0.3,0.3c0.1,0,0.3,0.1,0.5,0.1c0.3,0,0.4,0.2,0.4,0.5c0,0.4-0.2,0.8-0.5,1.2c-0.3,0.4-0.7,0.8-1.2,1.1
			c-0.6,0.4-1.3,0.5-1.9,0.5c-0.9,0-1.5-0.3-2.1-0.9c-0.2-0.2-0.3-0.3-0.5-0.3c-0.2,0-0.4,0.1-0.7,0.3c-0.8,0.6-1.8,0.9-2.8,0.9
			c-1.1,0-2-0.2-2.6-0.7c-0.4-0.3-0.8-0.7-1-1.2c-0.3-0.5-0.4-1-0.4-1.5c0-0.9,0.3-1.6,1-2.3c1.1-1,2.7-1.6,4.8-1.6
			c0.5,0,0.8,0,0.9-0.1c0.1-0.1,0.2-0.3,0.2-0.7c0-0.9-0.1-1.5-0.3-1.9s-0.5-0.6-0.9-0.6c-0.2,0-0.5,0.1-0.7,0.2
			c-0.2,0.1-0.4,0.4-0.7,0.8c-0.7,1-1.5,1.6-2.3,1.6c-0.4,0-0.7-0.1-1-0.4c-0.3-0.2-0.4-0.6-0.4-0.9c0-0.4,0.2-0.8,0.5-1.2
			c0.3-0.4,0.7-0.7,1.3-1C174.5,33.6,176.1,33.2,177.7,33.2z M176.9,40.3c-0.4,0-0.7,0.1-0.9,0.4s-0.4,0.7-0.4,1.1
			c0,0.4,0.1,0.7,0.3,1c0.2,0.2,0.4,0.4,0.8,0.4c0.7,0,1-0.6,1-1.7c0-0.5,0-0.8-0.1-0.9C177.3,40.4,177.1,40.4,176.9,40.3z"/>
		<path class="st0" d="M192,35.7v4c0,1.8,0,2.8,0.1,3.1c0.1,0.3,0.3,0.5,0.6,0.7c0.3,0.1,0.5,0.3,0.6,0.4c0.1,0.1,0.2,0.3,0.2,0.5
			c0,0.3-0.1,0.5-0.3,0.7c-0.2,0.2-0.4,0.4-0.8,0.5c-0.6,0.2-1.6,0.3-3,0.3c-1.6,0-2.7-0.1-3.3-0.4c-0.3-0.1-0.5-0.3-0.7-0.5
			c-0.2-0.2-0.3-0.5-0.3-0.7c0-0.2,0.1-0.4,0.2-0.5c0.1-0.1,0.3-0.2,0.7-0.4c0.3-0.1,0.5-0.5,0.6-1.1c0.1-1.1,0.2-2.6,0.2-4.6
			c0-2-0.1-3.3-0.2-3.9c-0.1-0.6-0.4-1-0.9-1.3c-0.3-0.2-0.6-0.4-0.7-0.6c-0.1-0.2-0.2-0.4-0.2-0.6c0-0.4,0.2-0.8,0.6-1.1
			c0.4-0.3,1-0.6,1.9-0.8c0.6-0.2,1.3-0.3,2.2-0.5s1.6-0.2,2-0.2c0.7,0,1,0.4,1,1.2c0,0.3,0,0.9-0.1,1.8
			C192.1,33.1,192,34.5,192,35.7z"/>
	</g>
</g>
</svg>
