<?xml version="1.0" encoding="utf-8"?>
<!-- Generator: Adobe Illustrator 22.0.1, SVG Export Plug-In . SVG Version: 6.00 Build 0)  -->
<svg version="1.1" id="Camada_1" xmlns="http://www.w3.org/2000/svg" xmlns:xlink="http://www.w3.org/1999/xlink" x="0px" y="0px"
	 viewBox="0 0 217.5 170" style="enable-background:new 0 0 217.5 170;" xml:space="preserve">
<style type="text/css">
	.st0{fill:#FFFFFF;}
</style>
<g>
	<path class="st0" d="M145.5,47.5l-46,24L52,51L0,79l22,91l69-42l60.5,21.5l66-34L145.5,47.5z M25.3,162.2L5.8,81.6l44.1-23.7
		l34.6,68.3L25.3,162.2z M106.7,73.4l37.9-19.8l64.3,60.7L153.2,143L106.7,73.4z"/>
	<path class="st0" d="M163.3,0c-16,0-29,10.5-29,29c0,4.5,3.1,11.4,5.4,16.9c6.1,14.6,24.1,55.6,24.1,55.6s22-52.4,23.5-56.2
		s5-11.8,5-16.3C192.3,11.5,179.3,0,163.3,0z M163.3,48.5c-10.8,0-19.5-8.7-19.5-19.5c0-10.8,8.7-19.5,19.5-19.5
		c10.8,0,19.5,8.7,19.5,19.5C182.8,39.8,174,48.5,163.3,48.5z"/>
	<path class="st0" d="M198.7,70.8c-7,0-12.7,4.6-12.7,12.7c0,2,1.4,5,2.4,7.4c2.7,6.4,10.6,24.4,10.6,24.4s9.6-23,10.3-24.6
		c0.7-1.7,2.2-5.2,2.2-7.1C211.4,75.9,205.7,70.8,198.7,70.8z M198.7,92.1c-4.7,0-8.5-3.8-8.5-8.5c0-4.7,3.8-8.5,8.5-8.5
		c4.7,0,8.5,3.8,8.5,8.5C207.2,88.3,203.4,92.1,198.7,92.1z"/>
	<path class="st0" d="M119,35.7c-7,0-12.7,4.6-12.7,12.7c0,2,1.4,5,2.4,7.4c2.7,6.4,10.6,24.4,10.6,24.4s9.6-23,10.3-24.6
		s2.2-5.2,2.2-7.1C131.7,40.7,126,35.7,119,35.7z M119,56.9c-4.7,0-8.5-3.8-8.5-8.5c0-4.7,3.8-8.5,8.5-8.5c4.7,0,8.5,3.8,8.5,8.5
		C127.5,53.1,123.7,56.9,119,56.9z"/>
	<path class="st0" d="M23.5,38c-7,0-12.7,4.6-12.7,12.7c0,2,1.4,5,2.4,7.4c2.7,6.4,10.6,24.4,10.6,24.4s9.6-23,10.3-24.6
		s2.2-5.2,2.2-7.1C36.2,43,30.5,38,23.5,38z M23.5,59.3c-4.7,0-8.5-3.8-8.5-8.5c0-4.7,3.8-8.5,8.5-8.5c4.7,0,8.5,3.8,8.5,8.5
		C32,55.4,28.2,59.3,23.5,59.3z"/>
	<path class="st0" d="M52.2,81c-5.4,0-9.9,3.6-9.9,9.9c0,1.5,1.1,3.9,1.8,5.7c2.1,5,8.2,18.9,8.2,18.9s7.5-17.8,8-19.1
		s1.7-4,1.7-5.5C62,84.9,57.6,81,52.2,81z M52.2,97.5c-3.7,0-6.6-3-6.6-6.6c0-3.7,3-6.6,6.6-6.6c3.7,0,6.6,3,6.6,6.6
		C58.8,94.5,55.8,97.5,52.2,97.5z"/>
	<path class="st0" d="M28.5,107c-5.4,0-9.9,3.6-9.9,9.9c0,1.5,1.1,3.9,1.8,5.7c2.1,5,8.2,18.9,8.2,18.9s7.5-17.8,8-19.1
		c0.5-1.3,1.7-4,1.7-5.5C38.4,110.9,33.9,107,28.5,107z M28.5,123.5c-3.7,0-6.6-3-6.6-6.6c0-3.7,3-6.6,6.6-6.6c3.7,0,6.6,3,6.6,6.6
		C35.1,120.5,32.2,123.5,28.5,123.5z"/>
</g>
</svg>
